<?xml version="1.0" standalone="no"?>
<!DOCTYPE svg PUBLIC "-//W3C//DTD SVG 20010904//EN"
 "http://www.w3.org/TR/2001/REC-SVG-20010904/DTD/svg10.dtd">
<svg version="1.0" xmlns="http://www.w3.org/2000/svg"
 width="180.000000pt" height="180.000000pt" viewBox="0 0 180.000000 180.000000"
 preserveAspectRatio="xMidYMid meet">
<metadata>
Created by potrace 1.11, written by Peter Selinger 2001-2013
</metadata>
<g transform="translate(0.000000,180.000000) scale(0.100000,-0.100000)"
fill="#000000" stroke="none">
<path d="M600 1731 c-85 -10 -119 -27 -147 -76 l-23 -40 0 -555 1 -555 22 -44
c39 -76 69 -85 286 -89 l184 -4 -6 -82 c-3 -47 -17 -115 -32 -160 -42 -126 -6
-128 109 -5 63 66 113 151 125 212 7 31 9 32 66 38 82 8 122 31 146 82 18 40
19 74 19 616 0 554 -1 575 -20 606 -35 57 -47 59 -370 61 -162 1 -324 -1 -360
-5z m645 -133 c9 -37 1 -1111 -9 -1131 -11 -23 -51 -43 -104 -52 -35 -6 -43
-11 -48 -33 -20 -90 -49 -154 -103 -224 -41 -54 -65 -70 -52 -35 32 84 55 214
49 271 -9 77 -25 95 -137 155 -57 31 -111 67 -120 81 -14 21 -16 73 -16 435 0
366 2 414 17 436 18 28 65 43 248 79 25 5 77 15 115 23 39 8 89 15 112 16 36
1 43 -2 48 -21z"/>
</g>
</svg>
